# Blender v2.76 (sub 0) OBJ File: 'Scene.blend'
# www.blender.org
mtllib Scene_scene.mtl
o Ear2_Cube
v 0.466029 1.484890 -1.878437
v 0.466029 1.484890 0.121563
v -1.533971 1.484890 0.121563
v -1.533971 1.484890 -1.878437
v 0.466029 3.484890 -1.878436
v 0.466028 3.484890 0.121564
v -1.533972 3.484890 0.121563
v -1.533971 3.484890 -1.878437
vt 0.000000 0.666667
vt 0.333333 0.666667
vt 0.333333 1.000000
vt 0.000000 1.000000
vt 0.666667 0.333333
vt 0.666667 0.666667
vt 0.333333 0.333333
vt 0.333333 0.000000
vt 0.666667 0.000000
vt 0.000000 0.333333
vt 0.000000 0.000000
vt 1.000000 0.333333
vt 1.000000 0.000000
vn 0.000000 -1.000000 -0.000000
vn 0.000000 1.000000 0.000000
vn 1.000000 0.000000 0.000000
vn -0.000000 -0.000000 1.000000
vn -1.000000 -0.000000 -0.000000
vn 0.000000 0.000000 -1.000000
usemtl Material
s off
f 1/1/1 2/2/1 3/3/1 4/4/1
f 5/5/2 8/6/2 7/2/2 6/7/2
f 1/5/3 5/7/3 6/8/3 2/9/3
f 2/10/4 6/11/4 7/8/4 3/7/4
f 3/12/5 7/5/5 8/9/5 4/13/5
f 5/10/6 1/7/6 4/2/6 8/1/6
o Head_Icosphere
v -0.372943 1.210227 1.105294
v 0.495386 1.873563 1.736165
v -0.704609 1.873563 2.126073
v -1.446254 1.873568 1.105294
v -0.704609 1.873563 0.084515
v 0.495386 1.873563 0.474424
v -0.041277 2.946891 2.126073
v -1.241272 2.946890 1.736165
v -1.241272 2.946890 0.474424
v -0.041277 2.946891 0.084515
v 0.700369 2.946886 1.105294
v -0.372943 3.610227 1.105294
v -0.567890 1.389441 1.705289
v 0.137444 1.389442 1.476108
v -0.057500 1.779342 2.076108
v 0.647835 1.779344 1.105294
v 0.137444 1.389442 0.734481
v -1.003819 1.389445 1.105294
v -1.198770 1.779343 1.705291
v -0.567890 1.389441 0.505300
v -1.198770 1.779343 0.505298
v -0.057500 1.779342 0.134480
v 0.768327 2.410227 1.476110
v 0.768327 2.410227 0.734479
v -0.372943 2.410227 2.305295
v 0.332400 2.410227 2.076114
v -1.514212 2.410227 1.476110
v -1.078286 2.410227 2.076114
v -1.078286 2.410227 0.134474
v -1.514212 2.410227 0.734479
v 0.332400 2.410227 0.134474
v -0.372943 2.410227 -0.094706
v 0.452884 3.041110 1.705291
v -0.688385 3.041112 2.076108
v -1.393720 3.041110 1.105294
v -0.688386 3.041112 0.134480
v 0.452884 3.041110 0.505298
v -0.177996 3.431012 1.705289
v 0.257933 3.431009 1.105294
v -0.883330 3.431012 1.476108
v -0.883330 3.431012 0.734481
v -0.177996 3.431012 0.505300
vt 0.082439 0.692800
vt 0.137211 0.856213
vt 0.006154 0.823110
vt 0.203814 0.993741
vt 0.283398 0.856214
vt 0.000000 0.625762
vt 0.127255 0.536898
vt 0.212055 0.679326
vt 0.314032 1.000000
vt 0.108243 0.442899
vt 0.069096 0.536898
vt 0.000000 0.370986
vt 0.326196 0.268450
vt 0.223598 0.370988
vt 0.223598 0.165910
vt 0.742952 0.690481
vt 0.872834 0.683434
vt 0.793479 0.856507
vt 0.443639 0.442900
vt 0.335397 0.370991
vt 0.430883 0.268450
vt 0.805796 0.460349
vt 0.722719 0.326847
vt 0.868814 0.319609
vt 0.095488 0.268448
vt 0.335396 0.102540
vt 0.663358 0.816935
vt 0.558994 0.370988
vt 0.919342 0.153584
vt 0.789459 0.146536
vt 0.870537 0.000000
vt 0.662294 0.844097
vt 0.604589 1.000000
vt 0.543202 0.857572
vt 0.534961 0.543157
vt 0.614544 0.680684
vt 0.468358 0.680686
vt 0.443639 0.093999
vt 0.404492 0.000000
vt 0.542682 0.000000
vt 0.661592 0.268448
vt 0.558994 0.165910
vt 0.670791 0.102538
vt 0.331147 0.911137
vt 0.337301 0.713788
vt 0.413586 0.844099
vt 0.408642 0.536899
vt 0.458402 1.000000
vt 1.000000 0.082506
vt 0.724443 0.007240
vt 0.670791 0.165900
vt 0.335396 0.165912
vt 0.730099 0.997247
vt 0.856498 0.997247
vt 0.645178 0.536898
vt 0.207286 0.000000
vt 0.108244 0.093998
vt 0.000001 0.165907
vt 0.998936 0.280037
vt 0.662294 0.619404
vt 0.939574 0.863745
vt 0.991503 0.702798
vt 0.932195 0.460349
vt 0.670791 0.434358
vt 0.542681 0.536898
vt 0.273441 0.536898
vt 0.331147 0.692800
vt 0.791757 0.536898
vt 0.937850 0.544137
vt 0.335396 0.434359
vt 0.207286 0.536898
vt 0.077496 1.000000
vn 0.102400 -0.943500 0.315100
vn 0.700200 -0.661700 0.268000
vn -0.268000 -0.943500 0.194700
vn -0.268000 -0.943500 -0.194700
vn 0.102400 -0.943500 -0.315100
vn 0.905000 -0.330400 0.268000
vn 0.024700 -0.330400 0.943500
vn -0.889700 -0.330400 0.315100
vn -0.574600 -0.330400 -0.748800
vn 0.534600 -0.330400 -0.777900
vn 0.802600 -0.125600 0.583100
vn -0.306600 -0.125600 0.943500
vn -0.992100 -0.125600 0.000000
vn -0.306600 -0.125600 -0.943500
vn 0.802600 -0.125600 -0.583100
vn 0.408900 0.661700 0.628400
vn -0.471300 0.661700 0.583100
vn -0.700200 0.661700 -0.268000
vn 0.038500 0.661700 -0.748800
vn 0.724000 0.661700 -0.194700
vn 0.268000 0.943500 -0.194700
vn 0.491100 0.794700 -0.356800
vn 0.408900 0.661700 -0.628400
vn -0.102400 0.943500 -0.315100
vn -0.187600 0.794700 -0.577300
vn -0.471300 0.661700 -0.583100
vn -0.331300 0.943500 0.000000
vn -0.607100 0.794700 0.000000
vn -0.700200 0.661700 0.268000
vn -0.102400 0.943500 0.315100
vn -0.187600 0.794700 0.577300
vn 0.038500 0.661700 0.748800
vn 0.268000 0.943500 0.194700
vn 0.491100 0.794700 0.356800
vn 0.724000 0.661700 0.194700
vn 0.889700 0.330400 -0.315100
vn 0.794700 0.187600 -0.577300
vn 0.574600 0.330400 -0.748800
vn -0.024700 0.330400 -0.943500
vn -0.303500 0.187600 -0.934200
vn -0.534600 0.330400 -0.777900
vn -0.905000 0.330400 -0.268000
vn -0.982200 0.187600 0.000000
vn -0.905000 0.330400 0.268000
vn -0.534600 0.330400 0.777900
vn -0.303500 0.187600 0.934200
vn -0.024700 0.330400 0.943500
vn 0.574600 0.330400 0.748800
vn 0.794700 0.187600 0.577300
vn 0.889700 0.330400 0.315100
vn 0.306600 0.125600 -0.943500
vn 0.303500 -0.187600 -0.934200
vn 0.024700 -0.330400 -0.943500
vn -0.802600 0.125600 -0.583100
vn -0.794700 -0.187600 -0.577300
vn -0.889700 -0.330400 -0.315100
vn -0.802600 0.125600 0.583100
vn -0.794700 -0.187600 0.577300
vn -0.574600 -0.330400 0.748800
vn 0.306600 0.125600 0.943500
vn 0.303500 -0.187600 0.934200
vn 0.534600 -0.330400 0.777900
vn 0.992100 0.125600 0.000000
vn 0.982200 -0.187600 0.000000
vn 0.905000 -0.330400 -0.268000
vn 0.471300 -0.661700 -0.583100
vn 0.187600 -0.794700 -0.577300
vn -0.038500 -0.661700 -0.748800
vn -0.408900 -0.661700 -0.628400
vn -0.491100 -0.794700 -0.356800
vn -0.724000 -0.661700 -0.194700
vn -0.724000 -0.661700 0.194700
vn -0.491100 -0.794700 0.356800
vn -0.408900 -0.661700 0.628400
vn 0.700200 -0.661700 -0.268000
vn 0.607100 -0.794700 0.000000
vn 0.331300 -0.943500 0.000000
vn -0.038500 -0.661700 0.748800
vn 0.187600 -0.794700 0.577300
vn 0.471300 -0.661700 0.583100
usemtl None
s off
f 9/14/7 22/15/7 21/16/7
f 10/17/8 22/15/8 24/18/8
f 9/14/9 21/16/9 26/19/9
f 9/14/10 26/19/10 28/20/10
f 9/14/11 28/20/11 25/21/11
f 10/17/12 24/18/12 31/22/12
f 11/23/13 23/24/13 33/25/13
f 12/26/14 27/27/14 35/28/14
f 13/29/15 29/30/15 37/31/15
f 14/32/16 30/33/16 39/34/16
f 10/35/17 31/36/17 34/37/17
f 11/23/18 33/25/18 36/38/18
f 12/26/19 35/28/19 38/39/19
f 13/29/20 37/31/20 40/40/20
f 14/32/21 39/34/21 32/41/21
f 15/42/22 41/43/22 46/44/22
f 16/45/23 42/46/23 48/47/23
f 17/48/24 43/49/24 49/50/24
f 18/51/25 44/52/25 50/53/25
f 19/54/26 45/55/26 47/56/26
f 47/57/27 50/58/27 20/59/27
f 47/56/28 45/55/28 50/53/28
f 45/55/29 18/51/29 50/53/29
f 50/58/30 49/50/30 20/59/30
f 50/58/31 44/60/31 49/50/31
f 44/60/32 17/48/32 49/50/32
f 49/50/33 48/47/33 20/59/33
f 49/50/34 43/49/34 48/47/34
f 43/49/35 16/45/35 48/47/35
f 48/47/36 46/61/36 20/59/36
f 48/47/37 42/46/37 46/61/37
f 42/62/38 15/42/38 46/44/38
f 46/61/39 47/57/39 20/59/39
f 46/44/40 41/43/40 47/63/40
f 41/43/41 19/64/41 47/63/41
f 32/41/42 45/55/42 19/54/42
f 32/41/43 39/34/43 45/55/43
f 39/34/44 18/51/44 45/55/44
f 40/65/45 44/52/45 18/51/45
f 40/40/46 37/31/46 44/66/46
f 37/31/47 17/67/47 44/66/47
f 38/68/48 43/49/48 17/48/48
f 38/39/49 35/28/49 43/69/49
f 35/28/50 16/70/50 43/69/50
f 36/38/51 42/71/51 16/70/51
f 36/38/52 33/25/52 42/71/52
f 33/72/53 15/42/53 42/62/53
f 34/37/54 41/43/54 15/42/54
f 34/37/55 31/36/55 41/43/55
f 31/36/56 19/64/56 41/43/56
f 39/34/57 40/65/57 18/51/57
f 39/34/58 30/33/58 40/65/58
f 30/73/59 13/29/59 40/40/59
f 37/31/60 38/74/60 17/67/60
f 37/31/61 29/30/61 38/74/61
f 29/30/62 12/75/62 38/74/62
f 35/28/63 36/38/63 16/70/63
f 35/28/64 27/27/64 36/38/64
f 27/27/65 11/23/65 36/38/65
f 33/72/66 34/37/66 15/42/66
f 33/72/67 23/76/67 34/37/67
f 23/76/68 10/35/68 34/37/68
f 31/77/69 32/41/69 19/54/69
f 31/77/70 24/78/70 32/41/70
f 24/78/71 14/32/71 32/41/71
f 25/21/72 30/79/72 14/80/72
f 25/21/73 28/20/73 30/79/73
f 28/81/74 13/29/74 30/73/74
f 28/81/75 29/30/75 13/29/75
f 28/81/76 26/82/76 29/30/76
f 26/82/77 12/75/77 29/30/77
f 26/83/78 27/27/78 12/26/78
f 26/83/79 21/84/79 27/27/79
f 21/84/80 11/23/80 27/27/80
f 24/18/81 25/21/81 14/80/81
f 24/18/82 22/15/82 25/21/82
f 22/15/83 9/14/83 25/21/83
f 21/84/84 23/24/84 11/23/84
f 21/16/85 22/15/85 23/85/85
f 22/15/86 10/17/86 23/85/86
o Ear_Cube
v 0.716547 1.433092 1.941740
v 0.716547 1.433092 3.941740
v -1.283453 1.433092 3.941740
v -1.283453 1.433092 1.941740
v 0.716547 3.433092 1.941741
v 0.716546 3.433092 3.941741
v -1.283453 3.433092 3.941740
v -1.283453 3.433092 1.941740
vt 0.000000 0.666667
vt 0.333333 0.666667
vt 0.333333 1.000000
vt 0.000000 1.000000
vt 0.666667 0.333333
vt 0.666667 0.666667
vt 0.333333 0.333333
vt 0.333333 0.000000
vt 0.666667 0.000000
vt 0.000000 0.333333
vt 0.000000 0.000000
vt 1.000000 0.333333
vt 1.000000 0.000000
vn 0.000000 -1.000000 -0.000000
vn 0.000000 1.000000 0.000000
vn 1.000000 0.000000 0.000000
vn -0.000000 -0.000000 1.000000
vn -1.000000 -0.000000 -0.000000
vn 0.000000 0.000000 -1.000000
usemtl Material
s off
f 51/86/87 52/87/87 53/88/87 54/89/87
f 55/90/88 58/91/88 57/87/88 56/92/88
f 51/90/89 55/92/89 56/93/89 52/94/89
f 52/95/90 56/96/90 57/93/90 53/92/90
f 53/97/91 57/90/91 58/94/91 54/98/91
f 55/95/92 51/92/92 54/87/92 58/86/92
